# xmcd CD database file
#
# Track frame offsets:
#	150
#	22224
#	39732
#	51217
#	70116
#	83162
#	97924
#	113851
#	128664
#	152893
#	162398
#
# Disc length: 2382 seconds
#
# Revision: 0
# Processed by: cddbd v1.5.2PL0 Copyright (c) Steve Scherf et al.
# Submitted via: CDex 1.51
#
DISCID=8e094c0b
DTITLE=Various Artist - let Stockholm flow
DYEAR=2008
DGENRE=Jazz
TTITLE0=Trouble
TTITLE1=Walking my baby back home
TTITLE2=Midsummer song
TTITLE3=For the sake of love
TTITLE4=The final countdown
TTITLE5=Worn out shoes
TTITLE6=Sunnanoe waltz
TTITLE7=Docking the boat
TTITLE8=Never gleamed the sea so softly
TTITLE9=Thank you for the music
TTITLE10=Open landscape
EXTD=YEAR: 2008
EXTT0=
EXTT1=
EXTT2=
EXTT3=
EXTT4=
EXTT5=
EXTT6=
EXTT7=
EXTT8=
EXTT9=
EXTT10=
PLAYORDER=
